<svg xmlns="http://www.w3.org/2000/svg" viewBox="0 0 49.68 45.21"><defs><style>.cls-1{fill:#ef8035;stroke:#fff;stroke-width:4px;}.cls-1,.cls-2{stroke-linecap:round;stroke-linejoin:round;}.cls-2{fill:none;stroke:#191919;stroke-width:2px;}</style></defs><title>Asset 5</title><g id="Layer_2" data-name="Layer 2"><g id="Layer_1-2" data-name="Layer 1"><path class="cls-1" d="M19.74,19.21a1.56,1.56,0,0,0-2.14-.44A7.68,7.68,0,0,1,13.48,20a7.54,7.54,0,0,1-4.13-1.18,1.55,1.55,0,0,0-2.14.44,66.09,66.09,0,0,0-5.08,9,1.58,1.58,0,0,0,1.4,2.21H23.35a1.54,1.54,0,0,0,1.4-2.21A58.41,58.41,0,0,0,19.74,19.21Z"/><path class="cls-2" d="M19.74,19.21a1.56,1.56,0,0,0-2.14-.44A7.68,7.68,0,0,1,13.48,20a7.54,7.54,0,0,1-4.13-1.18,1.55,1.55,0,0,0-2.14.44,66.09,66.09,0,0,0-5.08,9,1.58,1.58,0,0,0,1.4,2.21H23.35a1.54,1.54,0,0,0,1.4-2.21A58.41,58.41,0,0,0,19.74,19.21Z"/><circle class="cls-2" cx="13.54" cy="8.8" r="7.8"/><path class="cls-1" d="M42.51,32a1.54,1.54,0,0,0-2.14-.44,7.8,7.8,0,0,1-4.13,1.18,7.61,7.61,0,0,1-4.12-1.18A1.53,1.53,0,0,0,30,32a63.4,63.4,0,0,0-5.08,9,1.57,1.57,0,0,0,1.4,2.21H46.12A1.55,1.55,0,0,0,47.52,41,58.77,58.77,0,0,0,42.51,32Z"/><path class="cls-2" d="M42.51,32a1.54,1.54,0,0,0-2.14-.44,7.8,7.8,0,0,1-4.13,1.18,7.61,7.61,0,0,1-4.12-1.18A1.53,1.53,0,0,0,30,32a63.4,63.4,0,0,0-5.08,9,1.57,1.57,0,0,0,1.4,2.21H46.12A1.55,1.55,0,0,0,47.52,41,58.77,58.77,0,0,0,42.51,32Z"/><circle class="cls-2" cx="36.3" cy="21.59" r="7.8"/></g></g></svg>