<svg xmlns="http://www.w3.org/2000/svg" viewBox="0 0 40.4 41.52"><defs><style>.cls-1{fill:#37b2ef;stroke:#fff;stroke-width:3.5px;}.cls-1,.cls-2{stroke-linecap:round;stroke-linejoin:round;}.cls-2{fill:none;stroke:#191919;stroke-width:2px;}</style></defs><title>Asset 4</title><g id="Layer_2" data-name="Layer 2"><g id="Layer_1-2" data-name="Layer 1"><path class="cls-1" d="M17.42,27.47V24.33c0-.67-.79-1.21-1.83-1.21H13.5l-.06,0a3.94,3.94,0,1,1-7.87,0l0,0H3.21c-.79,0-1.46.46-1.46,1V38.77c0,.54.67,1,1.46,1H16.08c.73,0,1.34-.41,1.34-.91V35.57l.24-.35a3.61,3.61,0,1,0,0-7.21"/><path class="cls-1" d="M23,14.05v3.14c0,.67.79,1.21,1.82,1.21H26.9l.06,0a3.94,3.94,0,0,1,7.87,0l0,0h2.41c.79,0,1.46-.46,1.46-1V2.75c0-.54-.67-1-1.46-1H24.32c-.73,0-1.33.42-1.33.92V6l-.25.36a3.6,3.6,0,1,0,0,7.2"/><path class="cls-2" d="M6.09,18.12a3.6,3.6,0,1,0,7.2,0"/><path class="cls-2" d="M13.83,17.87H17c.67,0,1.21-.79,1.21-1.82V14l0,0a3.94,3.94,0,0,1,0-7.88l0,.06V3.66c0-.79-.46-1.46-1-1.46H2.53c-.54,0-1,.67-1,1.46V16.53c0,.73.42,1.34.92,1.34H5.73l.36.25"/><path class="cls-2" d="M23,14.05v3.14c0,.67.79,1.21,1.82,1.21H26.9l.06,0a3.94,3.94,0,0,1,7.87,0l0,0h2.41c.79,0,1.46-.46,1.46-1V2.75c0-.54-.67-1-1.46-1H24.32c-.73,0-1.33.42-1.33.92V6l-.25.36a3.6,3.6,0,1,0,0,7.2"/><path class="cls-2" d="M26.58,23.54H23.44c-.67,0-1.21.79-1.21,1.83v2.09l0,.06a3.94,3.94,0,0,1,0,7.87l0-.06v2.42c0,.79.46,1.46,1,1.46H37.88c.54,0,1-.67,1-1.46V24.88c0-.73-.42-1.34-.92-1.34H34.68l-.36-.24a3.6,3.6,0,1,0-7.2,0"/><path class="cls-2" d="M17.42,27.47V24.33c0-.67-.79-1.21-1.83-1.21H13.5l-.06,0a3.94,3.94,0,1,1-7.87,0l0,0H3.21c-.79,0-1.46.46-1.46,1V38.77c0,.54.67,1,1.46,1H16.08c.73,0,1.34-.41,1.34-.91V35.57l.24-.35a3.61,3.61,0,1,0,0-7.21"/></g></g></svg>