<svg xmlns="http://www.w3.org/2000/svg" viewBox="0 0 40.87 51.21"><defs><style>.cls-1{fill:#38e068;stroke:#fff;stroke-width:4px;}.cls-1,.cls-2{stroke-linecap:round;stroke-linejoin:round;}.cls-2{fill:none;stroke:#191919;stroke-width:2px;}</style></defs><title>Asset 6</title><g id="Layer_2" data-name="Layer 2"><g id="Layer_1-2" data-name="Layer 1"><path class="cls-1" d="M22.79,2.74,25.58,8.5a1.32,1.32,0,0,0,1,.73l6.33,1a1.31,1.31,0,0,1,.71,2.24L29,16.88A1.29,1.29,0,0,0,28.6,18l1,6.32a1.32,1.32,0,0,1-1.92,1.37l-5.65-3a1.29,1.29,0,0,0-1.22,0l-5.69,2.94a1.31,1.31,0,0,1-1.89-1.4l1.13-6.31A1.34,1.34,0,0,0,14,16.77l-4.56-4.5A1.32,1.32,0,0,1,10.22,10l6.34-.87a1.31,1.31,0,0,0,1-.71l2.88-5.73A1.32,1.32,0,0,1,22.79,2.74Z"/><path class="cls-2" d="M22.76,2.83l2.79,5.76a1.34,1.34,0,0,0,1,.73l6.34,1a1.32,1.32,0,0,1,.71,2.25L29,17a1.32,1.32,0,0,0-.39,1.16l1,6.32a1.32,1.32,0,0,1-1.92,1.37l-5.64-3a1.29,1.29,0,0,0-1.22,0l-5.69,2.94a1.32,1.32,0,0,1-1.9-1.4L14.37,18A1.31,1.31,0,0,0,14,16.86l-4.55-4.5a1.31,1.31,0,0,1,.74-2.24l6.34-.87a1.33,1.33,0,0,0,1-.72L20.4,2.81A1.32,1.32,0,0,1,22.76,2.83Z"/><line class="cls-2" x1="11.77" y1="1.6" x2="14.64" y2="5.86"/><line class="cls-2" x1="21.78" y1="26.86" x2="21.78" y2="32"/><line class="cls-2" x1="10.64" y1="18.44" x2="5.79" y2="20.13"/><line class="cls-2" x1="31.88" y1="18.93" x2="36.24" y2="21.66"/><line class="cls-2" x1="31.73" y1="1.78" x2="28.38" y2="5.68"/><path class="cls-2" d="M16.23,44.08c1.21,0,2.42,0,3.58-.12A25.93,25.93,0,0,0,24,43.77,6.78,6.78,0,0,0,26,43.2l10.82-4.7a2.16,2.16,0,0,1,3.08,1.88,2.08,2.08,0,0,1-1.31,1.93c-4.49,2.2-9,4.4-13.65,6.45a17.13,17.13,0,0,1-10.77,1c-4-.79-8-1.67-12-2.46a1,1,0,0,1-.91-1c0-3.62-.15-7.2-.18-10.83.05-.13,0-.22,0-.45a21.92,21.92,0,0,1,2.47-.37c1.35-.19,2.7-.37,4.09-.46a7.17,7.17,0,0,1,4.13,1.05c1.32.71,2.73,1.38,4,2.22a6.32,6.32,0,0,0,3.91.83c1.61-.09,3.14-.13,4.79-.13A2.21,2.21,0,0,1,26.59,40c.23,1.44-.38,2.5-1.6,2.73l-4.31.68c-1.44.23-2.88.46-4.36.59C16.19,44,16.19,44,16.23,44.08Z"/></g></g></svg>