<?xml version="1.0" encoding="UTF-8"?>
<svg width="94px" height="90px" viewBox="0 0 94 90" version="1.1" xmlns="http://www.w3.org/2000/svg" xmlns:xlink="http://www.w3.org/1999/xlink">
    <!-- Generator: Sketch 51.2 (57519) - http://www.bohemiancoding.com/sketch -->
    <title>Group 33</title>
    <desc>Created with Sketch.</desc>
    <defs></defs>
    <g id="Desktop" stroke="none" stroke-width="1" fill="none" fill-rule="evenodd">
        <g id="Career_Desktop" transform="translate(-674.000000, -5136.000000)">
            <g id="Group-33" transform="translate(675.000000, 5138.000000)">
                <path d="M58.5893026,30.9727324 L52.3883026,30.9727324 L52.3883026,22.8737189 C52.3883026,22.2220002 51.9593026,21.645913 51.3320526,21.451202 C50.7031776,21.2581001 50.0223026,21.4898223 49.6469276,22.0272892 L39.6125526,36.4101588 C39.2940526,36.8655573 39.2583026,37.4577363 39.5183026,37.9485368 C39.7783026,38.4377282 40.2901776,38.745082 40.8491776,38.745082 L47.0501776,38.745082 L47.0501776,46.8457047 C47.0501776,47.4974234 47.4775526,48.0719014 48.1064276,48.2666125 C48.2543026,48.3116696 48.4038026,48.3341981 48.5533026,48.3341981 C49.0391776,48.3341981 49.5055526,48.1024759 49.7915526,47.6921345 L59.8259276,33.3092649 C60.1428026,32.8522571 60.1801776,32.2600781 59.9201776,31.7708868 C59.6601776,31.2800862 59.1483026,30.9727324 58.5893026,30.9727324" id="Fill-1" fill="#B530D6"></path>
                <path d="M58.5893026,30.9727324 L52.3883026,30.9727324 L52.3883026,22.8737189 C52.3883026,22.2220002 51.9593026,21.645913 51.3320526,21.451202 C50.7031776,21.2581001 50.0223026,21.4898223 49.6469276,22.0272892 L39.6125526,36.4101588 C39.2940526,36.8655573 39.2583026,37.4577363 39.5183026,37.9485368 C39.7783026,38.4377282 40.2901776,38.745082 40.8491776,38.745082 L47.0501776,38.745082 L47.0501776,46.8457047 C47.0501776,47.4974234 47.4775526,48.0719014 48.1064276,48.2666125 C48.2543026,48.3116696 48.4038026,48.3341981 48.5533026,48.3341981 C49.0391776,48.3341981 49.5055526,48.1024759 49.7915526,47.6921345 L59.8259276,33.3092649 C60.1428026,32.8522571 60.1801776,32.2600781 59.9201776,31.7708868 C59.6601776,31.2800862 59.1483026,30.9727324 58.5893026,30.9727324 Z" id="Stroke-3" stroke="#FFFFFF" stroke-width="4.86"></path>
                <path d="M58.5893026,30.9727324 L52.3883026,30.9727324 L52.3883026,22.8737189 C52.3883026,22.2220002 51.9593026,21.645913 51.3320526,21.451202 C50.7031776,21.2581001 50.0223026,21.4898223 49.6469276,22.0272892 L39.6125526,36.4101588 C39.2940526,36.8655573 39.2583026,37.4577363 39.5183026,37.9485368 C39.7783026,38.4377282 40.2901776,38.745082 40.8491776,38.745082 L47.0501776,38.745082 L47.0501776,46.8457047 C47.0501776,47.4974234 47.4775526,48.0719014 48.1064276,48.2666125 C48.2543026,48.3116696 48.4038026,48.3341981 48.5533026,48.3341981 C49.0391776,48.3341981 49.5055526,48.1024759 49.7915526,47.6921345 L59.8259276,33.3092649 C60.1428026,32.8522571 60.1801776,32.2600781 59.9201776,31.7708868 C59.6601776,31.2800862 59.1483026,30.9727324 58.5893026,30.9727324 Z" id="Stroke-5" stroke="#191919" stroke-width="3.24"></path>
                <path d="M55.2187276,72.4617917 L44.5457276,72.4617917 C43.4927276,72.4617917 42.6331026,71.6089252 42.6331026,70.5677844 L42.6331026,66.5866679 C42.6331026,65.5439179 43.4927276,64.6910514 44.5457276,64.6910514 L55.2187276,64.6910514 C56.2701026,64.6910514 57.1313526,65.5439179 57.1313526,66.5866679 L57.1313526,70.5677844 C57.1313526,71.6089252 56.2701026,72.4617917 55.2187276,72.4617917" id="Fill-7" fill="#B530D6"></path>
                <path d="M55.2187276,72.4617917 L44.5457276,72.4617917 C43.4927276,72.4617917 42.6331026,71.6089252 42.6331026,70.5677844 L42.6331026,66.5866679 C42.6331026,65.5439179 43.4927276,64.6910514 44.5457276,64.6910514 L55.2187276,64.6910514 C56.2701026,64.6910514 57.1313526,65.5439179 57.1313526,66.5866679 L57.1313526,70.5677844 C57.1313526,71.6089252 56.2701026,72.4617917 55.2187276,72.4617917 Z" id="Stroke-9" stroke="#FFFFFF" stroke-width="4.86" stroke-linecap="round" stroke-linejoin="round"></path>
                <path d="M68.4251026,32.9142106 C68.4251026,22.6444105 60.0173526,14.3168931 49.6449776,14.3168931 C39.2742276,14.3168931 30.8664776,22.6444105 30.8664776,32.9142106 C30.8664776,40.84426 35.8796026,47.6108708 42.9369776,50.2853314 L42.9369776,58.8172149 L57.0224776,58.8172149 L57.0224776,50.0198164 C63.7256026,47.1812191 68.4251026,40.5916184 68.4251026,32.9142106 Z" id="Stroke-11" stroke="#191919" stroke-width="3.24" stroke-linecap="round" stroke-linejoin="round"></path>
                <path d="M55.2187276,72.4617917 L44.5457276,72.4617917 C43.4927276,72.4617917 42.6331026,71.6089252 42.6331026,70.5677844 L42.6331026,66.5866679 C42.6331026,65.5439179 43.4927276,64.6910514 44.5457276,64.6910514 L55.2187276,64.6910514 C56.2701026,64.6910514 57.1313526,65.5439179 57.1313526,66.5866679 L57.1313526,70.5677844 C57.1313526,71.6089252 56.2701026,72.4617917 55.2187276,72.4617917 Z" id="Stroke-13" stroke="#191919" stroke-width="3.24" stroke-linecap="round" stroke-linejoin="round"></path>
                <path d="M78.7859401,74.1786281 C63.0803151,89.6122936 37.7124401,89.5141335 22.1270651,73.9597794" id="Stroke-15" stroke="#191919" stroke-width="3.24" stroke-linecap="round" stroke-linejoin="round"></path>
                <path d="M79.5524526,85.0021478 C79.5524526,85.0021478 79.5622026,82.5803288 79.5735776,79.5920776 C79.5865776,76.6038265 79.5947026,74.1820074 79.5947026,74.1820074 C79.5947026,74.1820074 79.5865776,76.6038265 79.5735776,79.5920776 C79.5622026,82.5803288 79.5524526,85.0021478 79.5524526,85.0021478 Z" id="Stroke-17" stroke="#191919" stroke-width="3.24" stroke-linecap="round" stroke-linejoin="round"></path>
                <path d="M79.5953526,74.1816856 C79.5953526,74.1816856 77.1481026,74.1720305 74.1321026,74.1607662 C71.1144776,74.1495019 68.6672276,74.1398468 68.6672276,74.1398468 C68.6672276,74.1398468 71.1144776,74.1495019 74.1321026,74.1607662 C77.1481026,74.1720305 79.5953526,74.1816856 79.5953526,74.1816856 Z" id="Stroke-19" stroke="#191919" stroke-width="3.24" stroke-linecap="round" stroke-linejoin="round"></path>
                <path d="M64.9053526,5.18414105 C85.6046026,12.9243069 96.0501026,35.8165315 88.2338526,56.3159022" id="Stroke-21" stroke="#191919" stroke-width="3.24" stroke-linecap="round" stroke-linejoin="round"></path>
                <path d="M74.5299026,-0.00016091821 C74.5299026,-0.00016091821 72.3004026,0.997531983 69.5509026,2.22694711 C66.8014026,3.45797141 64.5719026,4.45566431 64.5719026,4.45566431 C64.5719026,4.45566431 66.8014026,3.45797141 69.5509026,2.22694711 C72.3004026,0.997531983 74.5299026,-0.00016091821 74.5299026,-0.00016091821 Z" id="Stroke-23" stroke="#191919" stroke-width="3.24" stroke-linecap="round" stroke-linejoin="round"></path>
                <path d="M64.5720651,4.45502064 C64.5720651,4.45502064 65.5795651,6.66281848 66.8226901,9.38555459 C68.0625651,12.1082907 69.0716901,14.3160885 69.0716901,14.3160885 C69.0716901,14.3160885 68.0625651,12.1082907 66.8226901,9.38555459 C65.5795651,6.66281848 64.5720651,4.45502064 64.5720651,4.45502064 Z" id="Stroke-25" stroke="#191919" stroke-width="3.24" stroke-linecap="round" stroke-linejoin="round"></path>
                <path d="M10.8676026,53.1099287 C4.6861026,32.0698728 16.8996026,10.0530433 38.1448526,3.93171462" id="Stroke-27" stroke="#191919" stroke-width="3.24" stroke-linecap="round" stroke-linejoin="round"></path>
                <path d="M0.900340099,48.6014833 C0.900340099,48.6014833 3.0437151,49.7681403 5.6892151,51.2067491 C8.3330901,52.6453579 10.4780901,53.8104057 10.4780901,53.8104057 C10.4780901,53.8104057 8.3330901,52.6453579 5.6892151,51.2067491 C3.0437151,49.7681403 0.900340099,48.6014833 0.900340099,48.6014833 Z" id="Stroke-29" stroke="#191919" stroke-width="3.24" stroke-linecap="round" stroke-linejoin="round"></path>
                <path d="M10.4772776,53.8108885 C10.4772776,53.8108885 11.6570276,51.6883773 13.1081526,49.0686288 C14.5609026,46.4504895 15.7374026,44.3263692 15.7374026,44.3263692 C15.7374026,44.3263692 14.5609026,46.4504895 13.1081526,49.0686288 C11.6570276,51.6883773 10.4772776,53.8108885 10.4772776,53.8108885 Z" id="Stroke-31" stroke="#191919" stroke-width="3.24" stroke-linecap="round" stroke-linejoin="round"></path>
            </g>
        </g>
    </g>
</svg>