<?xml version="1.0" encoding="UTF-8"?>
<svg width="102px" height="76px" viewBox="0 0 102 76" version="1.1" xmlns="http://www.w3.org/2000/svg" xmlns:xlink="http://www.w3.org/1999/xlink">
    <!-- Generator: Sketch 51.2 (57519) - http://www.bohemiancoding.com/sketch -->
    <title>Group 19</title>
    <desc>Created with Sketch.</desc>
    <defs></defs>
    <g id="Desktop" stroke="none" stroke-width="1" fill="none" fill-rule="evenodd">
        <g id="Career_Desktop" transform="translate(-1026.000000, -4494.000000)">
            <g id="Group-19" transform="translate(1030.000000, 4496.000000)">
                <path d="M88.918,69.1526931 L4.022,69.1526931 C1.8,69.1526931 0,67.3753494 0,65.1813173 L0,58.9744379 C0,56.7804058 1.8,55.0030621 4.022,55.0030621 L89.858,55.0030621 C92.136,55.0030621 94,56.8436003 94,59.0929275 L94,64.1346593 C94,66.8934918 91.712,69.1526931 88.918,69.1526931" id="Fill-1" fill="#B530D6"></path>
                <path d="M88.918,69.1526931 L4.022,69.1526931 C1.8,69.1526931 0,67.3753494 0,65.1813173 L0,58.9744379 C0,56.7804058 1.8,55.0030621 4.022,55.0030621 L89.858,55.0030621 C92.136,55.0030621 94,56.8436003 94,59.0929275 L94,64.1346593 C94,66.8934918 91.712,69.1526931 88.918,69.1526931 Z" id="Stroke-3" stroke="#FFFFFF" stroke-width="7.92"></path>
                <path d="M81.2168,50.9047049 L11.3688,50.9047049 C8.9448,50.9047049 6.9628,48.9476519 6.9628,46.5541623 L6.9628,4.70166667 C6.9628,2.1146441 9.1048,-0.000394965278 11.7228,-0.000394965278 L82.1568,-0.000394965278 C84.8408,-0.000394965278 87.0368,2.16796441 87.0368,4.82015625 L87.0368,45.1579601 C87.0368,48.3176823 84.4188,50.9047049 81.2168,50.9047049 Z" id="Stroke-5" stroke="#191919" stroke-width="3.96"></path>
                <path d="M88.918,69.1526931 L4.022,69.1526931 C1.8,69.1526931 0,67.3753494 0,65.1813173 L0,58.9744379 C0,56.7804058 1.8,55.0030621 4.022,55.0030621 L89.858,55.0030621 C92.136,55.0030621 94,56.8436003 94,59.0929275 L94,64.1346593 C94,66.8934918 91.712,69.1526931 88.918,69.1526931 Z" id="Stroke-7" stroke="#191919" stroke-width="3.96"></path>
                <path d="M36.5546,21.2167448 L32.2026,25.513967" id="Stroke-9" stroke="#191919" stroke-width="3.96" stroke-linecap="round" stroke-linejoin="round"></path>
                <path d="M36.5546,30.2877148 L32.2026,25.9904926" id="Stroke-11" stroke="#191919" stroke-width="3.96" stroke-linecap="round" stroke-linejoin="round"></path>
                <path d="M48.1582,17.4195486 L44.1022,33.226059" id="Stroke-13" stroke="#191919" stroke-width="3.96" stroke-linecap="round" stroke-linejoin="round"></path>
                <path d="M56.5742,21.2167448 L60.9262,25.513967" id="Stroke-15" stroke="#191919" stroke-width="3.96" stroke-linecap="round" stroke-linejoin="round"></path>
                <path d="M56.5742,30.2877148 L60.9262,25.9904926" id="Stroke-17" stroke="#191919" stroke-width="3.96" stroke-linecap="round" stroke-linejoin="round"></path>
            </g>
        </g>
    </g>
</svg>