<?xml version="1.0" encoding="UTF-8"?>
<svg width="98px" height="98px" viewBox="0 0 98 98" version="1.1" xmlns="http://www.w3.org/2000/svg" xmlns:xlink="http://www.w3.org/1999/xlink">
    <!-- Generator: Sketch 51.2 (57519) - http://www.bohemiancoding.com/sketch -->
    <title>Group 39</title>
    <desc>Created with Sketch.</desc>
    <defs></defs>
    <g id="Desktop" stroke="none" stroke-width="1" fill="none" fill-rule="evenodd">
        <g id="Career_Desktop" transform="translate(-1022.000000, -4684.000000)">
            <g id="Group-39" transform="translate(1024.000000, 4686.000000)">
                <path d="M63.4340673,50.524 L50.4045893,64.026 C48.7224641,65.77 45.9215858,65.818 44.1795275,64.134 L30.5127598,50.916 C28.6308572,49.098 28.5809129,46.068 30.3968889,44.186 L43.8319149,30.262 C45.6958375,28.33 48.7983795,28.276 50.7282286,30.142 L63.2922254,42.292 C65.5916625,44.518 65.6555913,48.222 63.4340673,50.524" id="Fill-1" fill="#B530D6"></path>
                <path d="M63.4340673,50.524 L50.4045893,64.026 C48.7224641,65.77 45.9215858,65.818 44.1795275,64.134 L30.5127598,50.916 C28.6308572,49.098 28.5809129,46.068 30.3968889,44.186 L43.8319149,30.262 C45.6958375,28.33 48.7983795,28.276 50.7282286,30.142 L63.2922254,42.292 C65.5916625,44.518 65.6555913,48.222 63.4340673,50.524 Z" id="Stroke-3" stroke="#FFFFFF" stroke-width="7.92"></path>
                <path d="M63.4340673,50.524 L50.4045893,64.026 C48.7224641,65.77 45.9215858,65.818 44.1795275,64.134 L30.5127598,50.916 C28.6308572,49.098 28.5809129,46.068 30.3968889,44.186 L43.8319149,30.262 C45.6958375,28.33 48.7983795,28.276 50.7282286,30.142 L63.2922254,42.292 C65.5916625,44.518 65.6555913,48.222 63.4340673,50.524 Z" id="Stroke-5" stroke="#191919" stroke-width="3.96"></path>
                <path d="M20.3822507,64.562 L20.1085558,48.842" id="Stroke-7" stroke="#191919" stroke-width="3.96" stroke-linecap="round" stroke-linejoin="round"></path>
                <path d="M65.3713081,73.395 L49.6688094,73.667" id="Stroke-9" stroke="#191919" stroke-width="3.96" stroke-linecap="round" stroke-linejoin="round"></path>
                <path d="M48.2653736,81.7202 L47.9936764,66.0002" id="Stroke-11" stroke="#191919" stroke-width="3.96" stroke-linecap="round" stroke-linejoin="round"></path>
                <path d="M11.9464529,46.5972 L27.6489516,46.3252" id="Stroke-13" stroke="#191919" stroke-width="3.96" stroke-linecap="round" stroke-linejoin="round"></path>
                <path d="M14.3949239,72.8824 C13.0963712,69.8344 14.5107948,66.3104 17.5554014,65.0084 C20.600008,63.7104 24.1200847,65.1264 25.4206352,68.1744 C26.7191879,71.2224 25.3027666,74.7484 22.2601577,76.0484 C19.2135533,77.3484 15.6914788,75.9304 14.3949239,72.8824 Z" id="Stroke-15" stroke="#191919" stroke-width="3.96" stroke-linecap="round" stroke-linejoin="round"></path>
                <path d="M77.2155072,69.8482 C78.5140599,72.8962 77.0976385,76.4202 74.0550297,77.7222 C71.0104231,79.0202 67.4883486,77.6042 66.1897959,74.5562 C64.8912432,71.5082 66.3076645,67.9822 69.3502734,66.6822 C72.3968778,65.3842 75.9169545,66.8002 77.2155072,69.8482 Z" id="Stroke-17" stroke="#191919" stroke-width="3.96" stroke-linecap="round" stroke-linejoin="round"></path>
                <path d="M52.9885094,85.1108 C54.2870621,88.1588 52.8726385,91.6828 49.8280319,92.9848 C46.7834253,94.2828 43.2633486,92.8668 41.9627981,89.8188 C40.6642454,86.7708 42.0806667,83.2448 45.1232756,81.9448 C48.16988,80.6468 51.6919545,82.0628 52.9885094,85.1108 Z" id="Stroke-19" stroke="#191919" stroke-width="3.96" stroke-linecap="round" stroke-linejoin="round"></path>
                <path d="M11.6128247,44.0728 C12.9093796,47.1208 11.4949561,50.6448 8.45034946,51.9468 C5.4077406,53.2448 1.88566613,51.8288 0.585115661,48.7808 C-0.711439263,45.7328 0.70298429,42.2068 3.74759092,40.9068 C6.79219755,39.6088 10.314272,41.0248 11.6128247,44.0728 Z" id="Stroke-21" stroke="#191919" stroke-width="3.96" stroke-linecap="round" stroke-linejoin="round"></path>
                <path d="M45.3935743,20.0708 L29.6910756,19.7988" id="Stroke-23" stroke="#191919" stroke-width="3.96" stroke-linecap="round" stroke-linejoin="round"></path>
                <path d="M46.94065,11.7456 L47.2123472,27.4656" id="Stroke-25" stroke="#191919" stroke-width="3.96" stroke-linecap="round" stroke-linejoin="round"></path>
                <path d="M17.2393537,22.7066 C15.9427987,19.6586 17.3572223,16.1326 20.4018289,14.8326 C23.4444378,13.5326 26.9665122,14.9506 28.2670627,17.9986 C29.5636176,21.0466 28.1491941,24.5706 25.1045875,25.8706 C22.0599808,27.1706 18.5379064,25.7546 17.2393537,22.7066 Z" id="Stroke-27" stroke="#191919" stroke-width="3.96" stroke-linecap="round" stroke-linejoin="round"></path>
                <path d="M42.2173144,8.356 C40.9187618,5.308 42.3351831,1.782 45.3777919,0.482 C48.4223986,-0.818 51.9424753,0.6 53.2430257,3.648 C54.5415784,6.696 53.1251571,10.22 50.0825482,11.52 C47.0359438,12.82 43.5138694,11.404 42.2173144,8.356 Z" id="Stroke-29" stroke="#191919" stroke-width="3.96" stroke-linecap="round" stroke-linejoin="round"></path>
                <path d="M73.2998714,28.3932 L73.5715685,44.1132" id="Stroke-31" stroke="#191919" stroke-width="3.96" stroke-linecap="round" stroke-linejoin="round"></path>
                <path d="M81.7338712,46.358 L66.0313725,46.63" id="Stroke-33" stroke="#191919" stroke-width="3.96" stroke-linecap="round" stroke-linejoin="round"></path>
                <path d="M79.2873979,20.0728 C80.5839529,23.1208 79.1695293,26.6448 76.1249227,27.9468 C73.0823138,29.2448 69.5602394,27.8288 68.2596889,24.7808 C66.963134,21.7328 68.3775575,18.2068 71.4221642,16.9068 C74.4667708,15.6088 77.9888452,17.0248 79.2873979,20.0728 Z" id="Stroke-35" stroke="#191919" stroke-width="3.96" stroke-linecap="round" stroke-linejoin="round"></path>
                <path d="M82.0694972,48.8824 C80.7709445,45.8344 82.1873658,42.3104 85.2299746,41.0084 C88.2745813,39.7104 91.794658,41.1264 93.0952084,44.1744 C94.3937611,47.2224 92.9773398,50.7484 89.934731,52.0484 C86.8881265,53.3484 83.3660521,51.9304 82.0694972,48.8824 Z" id="Stroke-37" stroke="#191919" stroke-width="3.96" stroke-linecap="round" stroke-linejoin="round"></path>
            </g>
        </g>
    </g>
</svg>