<?xml version="1.0" encoding="UTF-8"?>
<svg width="64px" height="73px" viewBox="0 0 64 73" version="1.1" xmlns="http://www.w3.org/2000/svg" xmlns:xlink="http://www.w3.org/1999/xlink">
    <!-- Generator: Sketch 51.2 (57519) - http://www.bohemiancoding.com/sketch -->
    <title>Group 17</title>
    <desc>Created with Sketch.</desc>
    <defs></defs>
    <g id="Desktop" stroke="none" stroke-width="1" fill="none" fill-rule="evenodd">
        <g id="Career_Desktop" transform="translate(-691.000000, -4711.000000)">
            <g id="Group-17" transform="translate(694.000000, 4713.000000)">
                <path d="M43.9068667,39.6899895 C42.7340182,37.9720947 40.4383818,37.5658842 38.6701697,38.6628316 C35.0032303,40.9408316 31.2969576,41.4794632 28.6455333,41.4902 C25.9905333,41.4794632 22.2878364,40.9408316 18.6191091,38.6628316 C16.850897,37.5658842 14.5570485,37.9720947 13.3824121,39.6899895 C10.4449273,43.9883053 5.26365455,52.1196737 1.11577576,61.5627263 C0.00729090909,64.0858842 1.83450303,66.9239895 4.58783636,66.9239895 L24.8373515,66.9239895 L32.4537152,66.9239895 L52.7014424,66.9239895 C55.4547758,66.9239895 57.2802,64.0858842 56.173503,61.5627263 C52.0256242,52.1196737 46.8461394,43.9883053 43.9068667,39.6899895" id="Fill-1" fill="#B530D6"></path>
                <path d="M43.9068667,39.6899895 C42.7340182,37.9720947 40.4383818,37.5658842 38.6701697,38.6628316 C35.0032303,40.9408316 31.2969576,41.4794632 28.6455333,41.4902 C25.9905333,41.4794632 22.2878364,40.9408316 18.6191091,38.6628316 C16.850897,37.5658842 14.5570485,37.9720947 13.3824121,39.6899895 C10.4449273,43.9883053 5.26365455,52.1196737 1.11577576,61.5627263 C0.00729090909,64.0858842 1.83450303,66.9239895 4.58783636,66.9239895 L24.8373515,66.9239895 L32.4537152,66.9239895 L52.7014424,66.9239895 C55.4547758,66.9239895 57.2802,64.0858842 56.173503,61.5627263 C52.0256242,52.1196737 46.8461394,43.9883053 43.9068667,39.6899895 Z" id="Stroke-3" stroke="#FFFFFF" stroke-width="7.2" stroke-linecap="round" stroke-linejoin="round"></path>
                <path d="M43.9068667,39.6899895 C42.7340182,37.9720947 40.4383818,37.5658842 38.6701697,38.6628316 C35.0032303,40.9408316 31.2969576,41.4794632 28.6455333,41.4902 C25.9905333,41.4794632 22.2878364,40.9408316 18.6191091,38.6628316 C16.850897,37.5658842 14.5570485,37.9720947 13.3824121,39.6899895 C10.4449273,43.9883053 5.26365455,52.1196737 1.11577576,61.5627263 C0.00729090909,64.0858842 1.83450303,66.9239895 4.58783636,66.9239895 L24.8373515,66.9239895 L32.4537152,66.9239895 L52.7014424,66.9239895 C55.4547758,66.9239895 57.2802,64.0858842 56.173503,61.5627263 C52.0256242,52.1196737 46.8461394,43.9883053 43.9068667,39.6899895 Z" id="Stroke-5" stroke="#191919" stroke-width="3.6" stroke-linecap="round" stroke-linejoin="round"></path>
                <path d="M15.5330515,4.87309474 L7.51799091,12.8953053" id="Stroke-7" stroke="#191919" stroke-width="3.6" stroke-linecap="round" stroke-linejoin="round"></path>
                <path d="M15.5330515,21.8093895 L7.51799091,13.7871789" id="Stroke-9" stroke="#191919" stroke-width="3.6" stroke-linecap="round" stroke-linejoin="round"></path>
                <path d="M32.4760636,0.000178947368 L25.0027303,29.5103895" id="Stroke-11" stroke="#191919" stroke-width="3.6" stroke-linecap="round" stroke-linejoin="round"></path>
                <path d="M41.335003,4.87309474 L49.3500636,12.8953053" id="Stroke-13" stroke="#191919" stroke-width="3.6" stroke-linecap="round" stroke-linejoin="round"></path>
                <path d="M41.335003,21.8093895 L49.3500636,13.7871789" id="Stroke-15" stroke="#191919" stroke-width="3.6" stroke-linecap="round" stroke-linejoin="round"></path>
            </g>
        </g>
    </g>
</svg>