<?xml version="1.0" encoding="UTF-8"?>
<svg width="81px" height="91px" viewBox="0 0 81 91" version="1.1" xmlns="http://www.w3.org/2000/svg" xmlns:xlink="http://www.w3.org/1999/xlink">
    <!-- Generator: Sketch 51.2 (57519) - http://www.bohemiancoding.com/sketch -->
    <title>Group 15</title>
    <desc>Created with Sketch.</desc>
    <defs></defs>
    <g id="Desktop" stroke="none" stroke-width="1" fill="none" fill-rule="evenodd">
        <g id="Career_Desktop" transform="translate(-328.000000, -4691.000000)">
            <g id="Group-15" transform="translate(332.000000, 4695.000000)">
                <path d="M38.8524667,5.71597872 L38.8524667,52.258 C38.8524667,54.4499149 37.057419,56.2421489 34.8660857,56.2421489 L4.75922857,56.2421489 C2.3905619,56.2421489 0.452561905,54.305234 0.452561905,51.9378936 L0.452561905,4.86597872 C0.452561905,2.43895745 2.43941905,0.451404255 4.86960952,0.451404255 L33.5849429,0.451404255 C36.480181,0.451404255 38.8524667,2.82055319 38.8524667,5.71597872" id="Fill-1" fill="#B530D6"></path>
                <path d="M38.8524667,5.71597872 L38.8524667,52.258 C38.8524667,54.4499149 37.057419,56.2421489 34.8660857,56.2421489 L4.75922857,56.2421489 C2.3905619,56.2421489 0.452561905,54.305234 0.452561905,51.9378936 L0.452561905,4.86597872 C0.452561905,2.43895745 2.43941905,0.451404255 4.86960952,0.451404255 L33.5849429,0.451404255 C36.480181,0.451404255 38.8524667,2.82055319 38.8524667,5.71597872 Z" id="Stroke-3" stroke="#FFFFFF" stroke-width="8.1"></path>
                <path d="M74.4599143,70.778234 L74.4599143,61.8677021 C74.4599143,59.8964255 73.0484857,58.2850426 71.325819,58.2850426 C69.5995333,58.2850426 68.1899143,59.8964255 68.1881048,61.8658936 L68.1881048,60.6740851 C68.1881048,58.7028085 66.7784857,57.093234 65.0540095,57.093234 C63.3295333,57.093234 61.9181048,58.7028085 61.9181048,60.6740851 L61.9181048,58.2850426 C61.9181048,56.3155745 60.5066762,54.7041915 58.7840095,54.7041915 C57.0595333,54.7041915 55.6481048,56.3155745 55.6481048,58.2850426 L55.6481048,46.3488723 C55.6481048,44.3794043 54.2366762,42.7680213 52.5122,42.7680213 C50.7877238,42.7680213 49.3781048,44.3794043 49.3781048,46.3488723 L49.3781048,69.0294043 C49.3781048,69.3024894 49.4088667,69.5665319 49.4631524,69.8233404 C49.4124857,70.1344043 49.3781048,70.4508936 49.3781048,70.778234 L49.3781048,79.2185532 C49.3781048,82.161 51.4662952,84.548234 54.0448667,84.548234 L69.7931524,84.548234 C72.3699143,84.548234 74.4599143,82.161 74.4599143,79.2185532 L74.4599143,70.778234 Z" id="Stroke-5" stroke="#191919" stroke-width="3.6" stroke-linecap="round" stroke-linejoin="round"></path>
                <path d="M45.8627429,39.9116596 C46.9556952,37.6202766 49.3026476,36.0450638 52.0096952,36.0685745 C54.6316952,36.0920851 56.889981,37.604 57.9865524,39.7959149" id="Stroke-7" stroke="#191919" stroke-width="3.6" stroke-linecap="round" stroke-linejoin="round"></path>
                <path d="M38.8524667,5.71597872 L38.8524667,63.7438511 C38.8524667,65.935766 37.057419,67.7298085 34.8660857,67.7298085 L4.75922857,67.7298085 C2.3905619,67.7298085 0.452561905,65.7910851 0.452561905,63.4237447 L0.452561905,4.86597872 C0.452561905,2.43895745 2.43941905,0.451404255 4.86960952,0.451404255 L33.5849429,0.451404255 C36.480181,0.451404255 38.8524667,2.82055319 38.8524667,5.71597872 Z" id="Stroke-9" stroke="#191919" stroke-width="3.6"></path>
                <path d="M38.8524667,5.71597872 L38.8524667,52.258 C38.8524667,54.4499149 37.057419,56.2421489 34.8660857,56.2421489 L4.75922857,56.2421489 C2.3905619,56.2421489 0.452561905,54.305234 0.452561905,51.9378936 L0.452561905,4.86597872 C0.452561905,2.43895745 2.43941905,0.451404255 4.86960952,0.451404255 L33.5849429,0.451404255 C36.480181,0.451404255 38.8524667,2.82055319 38.8524667,5.71597872 Z" id="Stroke-11" stroke="#191919" stroke-width="3.6"></path>
                <path d="M19.9709905,61.1652766 C19.9709905,61.1652766 19.9655619,61.5324043 19.9583238,61.9863404 C19.9510857,62.4384681 19.9456571,62.8055957 19.9456571,62.8055957 C19.9456571,62.8055957 19.9510857,62.4384681 19.9583238,61.9863404 C19.9655619,61.5324043 19.9709905,61.1652766 19.9709905,61.1652766 Z" id="Stroke-13" stroke="#191919" stroke-width="3.6" stroke-linecap="round" stroke-linejoin="round"></path>
            </g>
        </g>
    </g>
</svg>