<?xml version="1.0" encoding="UTF-8"?>
<svg width="71px" height="80px" viewBox="0 0 71 80" version="1.1" xmlns="http://www.w3.org/2000/svg" xmlns:xlink="http://www.w3.org/1999/xlink">
    <!-- Generator: Sketch 51.2 (57519) - http://www.bohemiancoding.com/sketch -->
    <title>Group 25</title>
    <desc>Created with Sketch.</desc>
    <defs></defs>
    <g id="Desktop" stroke="none" stroke-width="1" fill="none" fill-rule="evenodd">
        <g id="Career_Desktop" transform="translate(-685.000000, -4488.000000)">
            <g id="Group-25" transform="translate(687.000000, 4490.000000)">
                <polygon id="Stroke-1" stroke="#191919" stroke-width="3.6" stroke-linecap="round" stroke-linejoin="round" points="54.1905054 75.9364857 0.561532432 10.0788667 12.9456676 0.0106761905 66.5746405 65.8664857"></polygon>
                <path d="M15.8132676,10.0117333 C14.2921865,11.2476381 13.0608351,12.2501143 13.0608351,12.2501143 C13.0608351,12.2501143 14.2921865,11.2476381 15.8132676,10.0117333 C17.3325378,8.77582857 18.5657,7.7751619 18.5657,7.7751619 C18.5657,7.7751619 17.3325378,8.77582857 15.8132676,10.0117333 Z" id="Stroke-3" stroke="#191919" stroke-width="3.6" stroke-linecap="round" stroke-linejoin="round"></path>
                <path d="M23.4579676,17.6712667 C22.4058865,18.5271714 21.5529946,19.220219 21.5529946,19.220219 C21.5529946,19.220219 22.4058865,18.5271714 23.4579676,17.6712667 C24.5100486,16.8153619 25.3629405,16.1223143 25.3629405,16.1223143 C25.3629405,16.1223143 24.5100486,16.8153619 23.4579676,17.6712667 Z" id="Stroke-5" stroke="#191919" stroke-width="3.6" stroke-linecap="round" stroke-linejoin="round"></path>
                <path d="M29.408473,26.7082095 C27.8892027,27.9441143 26.6560405,28.944781 26.6560405,28.944781 C26.6560405,28.944781 27.8892027,27.9441143 29.408473,26.7082095 C30.9295541,25.4723048 32.1609054,24.4716381 32.1609054,24.4716381 C32.1609054,24.4716381 30.9295541,25.4723048 29.408473,26.7082095 Z" id="Stroke-7" stroke="#191919" stroke-width="3.6" stroke-linecap="round" stroke-linejoin="round"></path>
                <path d="M37.053173,34.3677429 C36.0010919,35.2236476 35.1482,35.9166952 35.1482,35.9166952 C35.1482,35.9166952 36.0010919,35.2236476 37.053173,34.3677429 C38.1052541,33.5118381 38.9581459,32.8187905 38.9581459,32.8187905 C38.9581459,32.8187905 38.1052541,33.5118381 37.053173,34.3677429 Z" id="Stroke-9" stroke="#191919" stroke-width="3.6" stroke-linecap="round" stroke-linejoin="round"></path>
                <path d="M43.0054892,43.4039619 C41.4844081,44.6398667 40.2530568,45.6423429 40.2530568,45.6423429 C40.2530568,45.6423429 41.4844081,44.6398667 43.0054892,43.4039619 C44.5247595,42.1680571 45.7579216,41.1673905 45.7579216,41.1673905 C45.7579216,41.1673905 44.5247595,42.1680571 43.0054892,43.4039619 Z" id="Stroke-11" stroke="#191919" stroke-width="3.6" stroke-linecap="round" stroke-linejoin="round"></path>
                <path d="M50.6501892,51.0634952 C49.5981081,51.9194 48.7452162,52.6124476 48.7452162,52.6124476 C48.7452162,52.6124476 49.5981081,51.9194 50.6501892,51.0634952 C51.7022703,50.2075905 52.5551622,49.5145429 52.5551622,49.5145429 C52.5551622,49.5145429 51.7022703,50.2075905 50.6501892,51.0634952 Z" id="Stroke-13" stroke="#191919" stroke-width="3.6" stroke-linecap="round" stroke-linejoin="round"></path>
                <path d="M56.6006946,60.1004381 C55.0814243,61.3363429 53.8482622,62.3370095 53.8482622,62.3370095 C53.8482622,62.3370095 55.0814243,61.3363429 56.6006946,60.1004381 C58.1217757,58.8645333 59.353127,57.8638667 59.353127,57.8638667 C59.353127,57.8638667 58.1217757,58.8645333 56.6006946,60.1004381 Z" id="Stroke-15" stroke="#191919" stroke-width="3.6" stroke-linecap="round" stroke-linejoin="round"></path>
                <path d="M56.9650297,3.17028571 L60.9596784,6.52152381 C63.4187595,8.58438095 63.7410838,12.2522857 61.6767595,14.709619 L16.8682459,68.0561905 C14.8039216,70.5153333 11.1334081,70.8374286 8.67251622,68.7727619 L4.67786757,65.4215238 C2.21878649,63.3568571 1.89646216,59.6907619 3.96078649,57.231619 L48.7693,3.88685714 C50.8336243,1.42590476 54.5041378,1.10561905 56.9650297,3.17028571" id="Fill-17" fill="#B530D6"></path>
                <path d="M56.9650297,3.17028571 L60.9596784,6.52152381 C63.4187595,8.58438095 63.7410838,12.2522857 61.6767595,14.709619 L16.8682459,68.0561905 C14.8039216,70.5153333 11.1334081,70.8374286 8.67251622,68.7727619 L4.67786757,65.4215238 C2.21878649,63.3568571 1.89646216,59.6907619 3.96078649,57.231619 L48.7693,3.88685714 C50.8336243,1.42590476 54.5041378,1.10561905 56.9650297,3.17028571 Z" id="Stroke-19" stroke="#FFFFFF" stroke-width="7.2" stroke-linecap="round" stroke-linejoin="round"></path>
                <path d="M56.9650297,3.17028571 L60.9596784,6.52152381 C63.4187595,8.58438095 63.7410838,12.2522857 61.6767595,14.709619 L16.8682459,68.0561905 C14.8039216,70.5153333 11.1334081,70.8374286 8.67251622,68.7727619 L4.67786757,65.4215238 C2.21878649,63.3568571 1.89646216,59.6907619 3.96078649,57.231619 L48.7693,3.88685714 C50.8336243,1.42590476 54.5041378,1.10561905 56.9650297,3.17028571 Z" id="Stroke-21" stroke="#191919" stroke-width="3.6" stroke-linecap="round" stroke-linejoin="round"></path>
                <polygon id="Stroke-23" stroke="#191919" stroke-width="3.6" stroke-linecap="round" stroke-linejoin="round" points="12.2499541 71.3728667 1.28006216 62.1714381 -0.000181081081 75.0443905"></polygon>
            </g>
        </g>
    </g>
</svg>