<svg xmlns="http://www.w3.org/2000/svg" xmlns:xlink="http://www.w3.org/1999/xlink" width="285" height="380" viewBox="0 0 285 380">
  <defs>
    <clipPath id="clip-Artboard_9">
      <rect width="285" height="380"/>
    </clipPath>
  </defs>
  <g id="Artboard_9" data-name="Artboard – 9" clip-path="url(#clip-Artboard_9)">
    <g id="OBJECTS" transform="translate(-137.839 -115.623)">
      <path id="Path_11" data-name="Path 11" d="M202.653,308.572c.55.964,6.154,6.653,6.154,6.653a2.892,2.892,0,0,0,1.389,2.77,100.858,100.858,0,0,0,31.718,18.487c1.7.608,3.427,1.148,5.147,1.613a1.726,1.726,0,0,1,.45.016c.1.026.191.05.291.075,1.056.333,2.9,1.764,2.9,7.735,0,0,.415,3.917,1.172,10.345,3.135,26.4,12.2,95.172,22.9,108.221,13.306,16.233,29.489,14.545,47.179-6.238,3.7-4.35,8.154-11.93,12.832-21.369a335.461,335.461,0,0,0,6.43,46.182H471.044V351.449a48.413,48.413,0,0,0-4.884-7.383l0,.006a47.341,47.341,0,0,0-9.575-10.777c-8.622-7.312-19.556-12.481-28.542-15.873,0,0-9.172-15.133-16.068-12.408q.281-7.356.646-13.907c.074-1.377.152-2.714.231-4.034A97.8,97.8,0,0,0,425.363,269c1.041-1.244,1.971-2.479,2.792-3.67a9.918,9.918,0,0,0,2.907.432,11.3,11.3,0,0,0,3.486-.589c5.439.225,11.114-1.991,14-5.573,3.934-4.893,5.785-12.924,2.036-19.2a8.9,8.9,0,0,0-1.31-1.689,12.724,12.724,0,0,0-2.084-4.448c-.055-.156-.123-.3-.182-.453,3.31-8.808,12.115-35.872-1.108-44.175,0,0,.4-9.272-17.857-18.213a38.328,38.328,0,0,0-6.909-2.525,45.271,45.271,0,0,0-17.165-4.2c-12.474,0-13.609,2.447-13.609,2.447h.01a182.27,182.27,0,0,0-27.123,4.277s6.595-13.051,0-15.318c-8.067-2.772-10.562,20.236-10.562,20.236s-.875-19.128-8.615-13.86-4.356,23.786,7.258,31.991a68.769,68.769,0,0,0-1.334,22.122l-.02.028a1.231,1.231,0,0,0,.148,1.509c.285,3.1.687,6.2,1.14,9.315-2.936,4.786-4.175,11.614-2.89,18.47,1.041,5.56,3.541,10.073,6.733,12.862.018.893.028,1.785.015,2.673-.145,10.117-1.19,21.443,3.716,30.727,5.129,9.682,16.513,14.386,27.052,12.353q-.033,2.072-.037,4.04h-.006a34.4,34.4,0,0,0-10.592,11.821c-.159.075-.314.147-.475.225-1.576.763-3.264,1.637-5.02,2.625-.07.024-39.7,13.409-71.752,101.484l-20.333-71.978-3.435-12.159s-3.883-10.661-2.636-16.973a12.843,12.843,0,0,0,.207-3.027c-.233-6.761-4.873-16.758-19.06-19.918a28.649,28.649,0,0,1-12.749-6.777s-4.849,1.929.64,8.308c0,0-1.272-.224-3.393-.724a108.247,108.247,0,0,1-14.969-4.641c-6.994-2.77-14.536-4.99-17.763-3.567-2.628,1.164-1.913,2.677-1.913,2.677s-4.873,1.256-.582,6.246C202.014,302.193,199.652,303.308,202.653,308.572Z" transform="translate(-62.408 -24.672)" fill="#231f20" opacity="0.15"/>
      <g id="Group_19" data-name="Group 19" transform="translate(152.042 122.148)">
        <path id="Path_12" data-name="Path 12" d="M289.17,338.155c-6.927,17.88-23.526,5.331-23.526,5.331,0-5.971-1.846-7.4-2.9-7.735l-.291-.074a1.7,1.7,0,0,0-.449-.017c-1.722-.466-3.444-1.006-5.148-1.613a100.857,100.857,0,0,1-31.718-18.487,2.892,2.892,0,0,1-1.389-2.77s-5.6-5.689-6.154-6.653c-3-5.264-.64-6.379-.64-6.379-4.291-4.99.582-6.246.582-6.246s-.715-1.514,1.913-2.677c3.227-1.422,10.77.8,17.763,3.567a108.213,108.213,0,0,0,14.97,4.641c2.12.5,3.392.724,3.392.724-5.489-6.379-.64-8.308-.64-8.308a28.65,28.65,0,0,0,12.749,6.777c14.188,3.16,18.827,13.157,19.06,19.918a12.845,12.845,0,0,1-.207,3.027C285.287,327.494,289.17,338.155,289.17,338.155Z" transform="translate(-215.184 -153.44)" fill="#ff9d76"/>
        <path id="Path_13" data-name="Path 13" d="M264.748,306.029s.841,6.927,4.832,11.609c-2.27-2.328-5.9-6.544-7.467-11.052,0,0-6.9-4.474-8.017-7.094,2.12.5,3.392.723,3.392.723A45.886,45.886,0,0,0,264.748,306.029Z" transform="translate(-217.1 -153.888)" fill="#ff7f6a"/>
        <path id="Path_14" data-name="Path 14" d="M272.329,320.451a12.3,12.3,0,0,1-1.9-1.821C271.456,319.678,272.2,320.335,272.329,320.451Z" transform="translate(-217.903 -154.83)" fill="#ff7f6a"/>
        <path id="Path_15" data-name="Path 15" d="M223.837,312.922c.415-2.078,3.188-1.663,5.129,0s7.9,5.749,10.257,6.27.678-15.509,2.772-18.883c0,0-2.495,0-7.623-2.356s-11.593-6.4-16.746-4.308c0,0,2.331-1.1,7.46,1.4s14.277,6.653,14.277,6.653a4.1,4.1,0,0,1-.555,4.439c-1.8,2.076-17.47-9.989-21.763-6.244a18.37,18.37,0,0,1,6.379,1.943c2.495,1.525,12.89,6.93,14.554,7.207s.831,5.128-.832,5.822c0,0-7.208-3.26-10.257-4.956S223.837,312.922,223.837,312.922Z" transform="translate(-215.276 -153.571)" fill="#ff7f6a"/>
        <path id="Path_16" data-name="Path 16" d="M291.632,339.593c-6.927,17.88-23.526,5.331-23.526,5.331,0-5.971-1.846-7.4-2.9-7.735,6.046,1.5,12.9,2.188,16.383-1.7,4.608-5.139-.931-11.593-1.114-11.9.183.233,5.822,0,8.732-3.991a12.842,12.842,0,0,1-.207,3.027C287.749,328.931,291.632,339.593,291.632,339.593Z" transform="translate(-217.646 -154.877)" fill="#ff7f6a"/>
        <path id="Path_17" data-name="Path 17" d="M339.51,457.389c-17.689,20.783-33.873,22.471-47.179,6.238-10.7-13.049-19.768-81.817-22.9-108.221-.757-6.428-1.172-10.345-1.172-10.345,13.073,5.48,23.526-5.331,23.526-5.331l3.435,12.159,20.333,71.978C347.635,335.713,387.3,322.382,387.3,322.382,391.895,342.325,357.2,436.616,339.51,457.389Z" transform="translate(-217.797 -155.014)" fill="#b52445"/>
        <path id="Path_18" data-name="Path 18" d="M492.883,356.182c-1.165-9.895-6.925-17.926-14.462-24.319-8.622-7.311-19.556-12.481-28.542-15.873a131.7,131.7,0,0,0-16.945-5.212s-.357,16.179-18.926,15.117c-3.622-.2-6.989-6.581-6.3-11.147a75.716,75.716,0,0,0-11.1,4.438c-13.069,6.326-33.686,20.108-39.042,45.666-.357,1.674-.646,3.409-.859,5.186-1.528,12.695-4.106,72.083,8.414,120.339H483.449c5.236-23.236,8.082-49.41,9.434-72.766Z" transform="translate(-222.086 -154.443)" fill="#ef3936"/>
        <path id="Path_19" data-name="Path 19" d="M399.573,326.486l5.666,11.184,1.635,8.316s-11.337,72.4-11.337,124.7l5.948,7.276,9.322-5.822s-6.176-32.364.7-125.068l4.592-8.367,17.461-11.227S408.513,317.587,399.573,326.486Z" transform="translate(-224.061 -155.034)" fill="#f6921e"/>
        <path id="Path_20" data-name="Path 20" d="M415.768,329.489c5.882-5.648,17.207-15.4,18.294-20.551,1.552-7.354-23.906-2.08-23.906-2.08s-4.095,9.564-4.415,16.009l3.471,5.421Z" transform="translate(-224.563 -154.16)" fill="#991f3f"/>
        <path id="Path_21" data-name="Path 21" d="M410.583,314.922s.532,7.527,6.131,7.527a27.965,27.965,0,0,0,19.361-7.527c.229-10.559.619-20.161,1.088-28.693q.318-5.866.68-11.044c1.505-22.021,3.325-34.426,3.325-34.426s-26.893,4.676-28.814,25.439q-.485,5.164-.825,9.939c-.96,13-1.258,23.849-1.1,32.87C410.453,311.075,410.509,313.041,410.583,314.922Z" transform="translate(-224.792 -150.997)" fill="#ff7f6a"/>
        <path id="Path_22" data-name="Path 22" d="M437.842,276.967q-.357,5.177-.68,11.044c-5.578,8.978-14.828,20.431-26.74,22.778-.153-9.021.145-19.87,1.1-32.87Z" transform="translate(-224.792 -152.779)" fill="#e27954"/>
        <g id="Group_18" data-name="Group 18" transform="translate(139.648)">
          <ellipse id="Ellipse_6" data-name="Ellipse 6" cx="14.157" cy="20.486" rx="14.157" ry="20.486" transform="matrix(0.998, -0.059, 0.059, 0.998, 6.821, 65.904)" fill="#404041"/>
          <path id="Path_23" data-name="Path 23" d="M464.673,202.789a101.972,101.972,0,0,1-2.883,21.545,156.079,156.079,0,0,1-12.073,32.717c-4.787,9.658-12.031,20.32-21.051,28.125A46.529,46.529,0,0,1,410,295.506c-10.926,2.78-23.134-1.922-28.5-12.047-4.906-9.284-3.86-20.61-3.716-30.727.306-22.591-9.744-46.729-3.265-68.945a22.774,22.774,0,0,1,11.368-14.1c19.666-10.628,58.793-10.4,72.95,9.6,3.886,5.483,5.536,12.311,5.79,19.027C464.69,199.8,464.707,201.292,464.673,202.789Z" transform="translate(-362.568 -147.155)" fill="#ff9d76"/>
          <path id="Path_24" data-name="Path 24" d="M464.706,227.524a156.077,156.077,0,0,1-12.073,32.717c-4.787,9.658-12.031,20.32-21.051,28.125,25.677-24.563,19.2-60.434,19.2-60.434Z" transform="translate(-365.484 -150.346)" fill="#ff7f6a"/>
          <path id="Path_25" data-name="Path 25" d="M421.706,261.664a37.5,37.5,0,0,1-1.832,3.843c-.075.125-.153.253-.229.4-3.2,5.9-10.225,15.925-20.628,15.925a13.923,13.923,0,0,1-3.74-.485c-10.53-2.925-8.419-18.391-8.419-18.391a4.917,4.917,0,0,0,1.043,1.171c1.933,1.7,6.919,4.452,18.008,2.39,1.425-.253,2.977-.61,4.655-1.042a.194.194,0,0,1,.1-.026A95.966,95.966,0,0,0,421.706,261.664Z" transform="translate(-363.274 -152.026)" fill="#8d031e"/>
          <path id="Path_26" data-name="Path 26" d="M451.047,240.023c6.327-8.433,20.868-13.475,25.932-5,3.749,6.277,1.9,14.308-2.036,19.2-5.588,6.943-21.666,8.779-26.169-2.42C447.156,247.786,448.362,243.6,451.047,240.023Z" transform="translate(-366.294 -150.5)" fill="#ff9d76"/>
          <path id="Path_27" data-name="Path 27" d="M458.415,252.055s3.281-10.177,7.766-14.352c4.556-4.242,10.323-2.417,11.189,7.122,0,0-2.889-2.318-4.858-1.057,0,0,4.358,10.263-7.628,12.682C464.884,256.45,464.519,249.744,458.415,252.055Z" transform="translate(-366.804 -150.74)" fill="#e27954"/>
          <path id="Path_28" data-name="Path 28" d="M419.984,266.094c-3.2,5.9-10.225,15.925-20.628,15.925a13.925,13.925,0,0,1-3.739-.485,4.991,4.991,0,0,1-1.882-2.672c-1.2-4.374,4.349-9.692,12.514-12.158.306-.1.611-.2.916-.278a25.611,25.611,0,0,1,3.739-.764.2.2,0,0,1,.1-.026A20.943,20.943,0,0,1,419.984,266.094Z" transform="translate(-363.613 -152.208)" fill="#b52445"/>
          <path id="Path_29" data-name="Path 29" d="M421.769,261.664a37.5,37.5,0,0,1-1.832,3.843c-20.857,12.41-31.973,2.77-31.973,2.77v-4.144C390.635,266.5,399.181,270.846,421.769,261.664Z" transform="translate(-363.337 -152.026)" fill="#fff"/>
          <g id="Group_12" data-name="Group 12" transform="translate(22.656 69.118)">
            <path id="Path_30" data-name="Path 30" d="M389.3,255.376a3.6,3.6,0,0,1-3.07-1.1c-1.118-1.621.795-4.042,1.424-4.838,5.608-7.1,7.1-26.471,4.917-29.022a.832.832,0,0,1,1.264-1.082c2.976,3.472,1.141,23.518-4.877,31.134-1.405,1.779-1.516,2.637-1.36,2.863.532.771,4.119.3,7-.612a.832.832,0,1,1,.5,1.587A21.707,21.707,0,0,1,389.3,255.376Z" transform="translate(-385.89 -219.047)" fill="#e27954"/>
          </g>
          <g id="Group_13" data-name="Group 13" transform="translate(49.17 71.032)">
            <path id="Path_31" data-name="Path 31" d="M427.523,229.192c0,4.008-2.453,7.335-5.68,8a5.629,5.629,0,0,1-1.189.125c-3.8,0-6.877-3.634-6.877-8.125s3.077-8.133,6.877-8.133a5.63,5.63,0,0,1,1.189.125C425.07,221.849,427.523,225.183,427.523,229.192Z" transform="translate(-413.777 -221.059)" fill="#fff"/>
            <path id="Path_32" data-name="Path 32" d="M427.647,229.2c0,4.008-2.453,7.335-5.68,8-3.227-.666-5.68-3.992-5.68-8s2.453-7.343,5.68-8.008C425.194,221.856,427.647,225.19,427.647,229.2Z" transform="translate(-413.9 -221.065)" fill="#314072"/>
            <path id="Path_33" data-name="Path 33" d="M419.78,225.189a1.747,1.747,0,1,1-1.747-1.747A1.747,1.747,0,0,1,419.78,225.189Z" transform="translate(-413.9 -221.176)" fill="#fff"/>
          </g>
          <g id="Group_14" data-name="Group 14" transform="translate(15.28 72.025)">
            <path id="Path_34" data-name="Path 34" d="M391.88,230.237c0,4.008-2.453,7.335-5.68,8a5.628,5.628,0,0,1-1.19.125c-3.8,0-6.878-3.635-6.878-8.125s3.078-8.133,6.878-8.133a5.567,5.567,0,0,1,1.19.125C389.427,222.894,391.88,226.228,391.88,230.237Z" transform="translate(-378.133 -222.104)" fill="#fff"/>
            <path id="Path_35" data-name="Path 35" d="M392,230.243c0,4.008-2.453,7.335-5.68,8-3.227-.666-5.68-3.992-5.68-8s2.453-7.343,5.68-8.008C389.551,222.9,392,226.235,392,230.243Z" transform="translate(-378.257 -222.11)" fill="#314072"/>
            <path id="Path_36" data-name="Path 36" d="M384.136,226.234a1.746,1.746,0,1,1-1.746-1.747A1.746,1.746,0,0,1,384.136,226.234Z" transform="translate(-378.257 -222.221)" fill="#fff"/>
          </g>
          <g id="Group_15" data-name="Group 15" transform="translate(41.917 57.582)">
            <path id="Path_37" data-name="Path 37" d="M430.329,213.045a1.237,1.237,0,0,1-.706-.221c-9.72-6.7-21.589-1.4-21.708-1.348a1.247,1.247,0,1,1-1.036-2.269c.537-.246,13.292-5.925,24.159,1.562a1.248,1.248,0,0,1-.708,2.275Z" transform="translate(-406.149 -206.913)" fill="#314072"/>
          </g>
          <g id="Group_16" data-name="Group 16" transform="translate(9.875 57.039)">
            <path id="Path_38" data-name="Path 38" d="M373.694,211.976a1.247,1.247,0,0,1-1.047-1.925,7.736,7.736,0,0,1,5.052-3.513c5.4-1.129,11.7,2.975,11.965,3.15a1.248,1.248,0,0,1-1.374,2.083c-.056-.038-5.709-3.714-10.085-2.79a5.253,5.253,0,0,0-3.463,2.425A1.246,1.246,0,0,1,373.694,211.976Z" transform="translate(-372.448 -206.342)" fill="#314072"/>
          </g>
          <path id="Path_39" data-name="Path 39" d="M468.064,180.113s.4-9.272-17.858-18.214-52.335-3.049-64.8,0c0,0,6.595-13.05,0-15.317-8.067-2.772-10.562,20.236-10.562,20.236s-.875-19.128-8.615-13.86-4.356,23.786,7.258,31.991c0,0,26.522-9.037,56.076,0,0,0,4.016,25.658,17.867,32.119l-.3,27.135s7.972-17.829,20.928-17.114C468.064,227.089,483.937,190.081,468.064,180.113Z" transform="translate(-362.062 -146.35)" fill="#314072"/>
          <g id="Group_17" data-name="Group 17" transform="translate(48.618 8.826)">
            <ellipse id="Ellipse_7" data-name="Ellipse 7" cx="20.486" cy="14.157" rx="20.486" ry="14.157" transform="matrix(0.257, -0.966, 0.966, 0.257, 26.307, 97.09)" fill="#404041"/>
            <path id="Path_40" data-name="Path 40" d="M461.912,224.591S470,157.478,415.134,158.08c0,0,1.135-2.447,13.609-2.447s54.965,12.063,42.729,68.958C471.473,224.591,467.666,221.217,461.912,224.591Z" transform="translate(-413.292 -155.633)" fill="#6d6e70"/>
            <path id="Path_41" data-name="Path 41" d="M457.512,251.192s-9.841,27.787-37.991,26.82" transform="translate(-413.508 -160.336)" fill="none" stroke="#6d6e70" stroke-linecap="round" stroke-linejoin="round" stroke-width="1.749"/>
            <path id="Path_42" data-name="Path 42" d="M418.91,281.36h-3.517a2.2,2.2,0,0,1-2.2-2.2h0a2.2,2.2,0,0,1,2.2-2.2h3.517a2.2,2.2,0,0,1,2.2,2.2h0A2.2,2.2,0,0,1,418.91,281.36Z" transform="translate(-413.197 -161.605)" fill="#404041"/>
            <path id="Path_43" data-name="Path 43" d="M476.359,240.374c-1.121,8.33-6.863,15.081-12.825,15.081s-9.886-6.751-8.766-15.081,6.863-15.081,12.825-15.081S477.479,232.045,476.359,240.374Z" transform="translate(-415.234 -159.062)" fill="#808184"/>
          </g>
        </g>
        <path id="Path_44" data-name="Path 44" d="M406.874,319.843l-10.71,19.128s-5.051-18.688,13.49-32.019C409.654,306.952,406.068,314.022,406.874,319.843Z" transform="translate(-224.061 -154.255)" fill="#b52445"/>
        <path id="Path_45" data-name="Path 45" d="M415.318,330.315l9.974-6.622-9.256-1.871s-4.08,3.7-4.851,7.648Z" transform="translate(-224.831 -154.987)" fill="#991f3f"/>
        <path id="Path_46" data-name="Path 46" d="M436.806,303.194s-4.291,14.8-20.519,17.7l10.226,22.686s22.716-14.135,26.362-27.974C452.875,315.6,443.7,300.467,436.806,303.194Z" transform="translate(-225.082 -154.054)" fill="#b52445"/>
        <path id="Path_47" data-name="Path 47" d="M295.217,352.787c-7.169,7.044-21.589,4.457-25.789,3.518-.757-6.428-1.172-10.345-1.172-10.345,13.073,5.48,23.526-5.331,23.526-5.331Z" transform="translate(-217.797 -155.912)" fill="#b52445"/>
        <path id="Path_48" data-name="Path 48" d="M259.01,336.307c1.664.533,3.584,1.131,5.6,1.631a1.7,1.7,0,0,0-.449-.017C262.437,337.455,260.715,336.915,259.01,336.307Z" transform="translate(-217.342 -155.7)" fill="#ff7f6a"/>
        <path id="Path_49" data-name="Path 49" d="M499,351.667a48.466,48.466,0,0,0-4.884-7.383A185.233,185.233,0,0,0,480.58,387.8c-4.3,24.394,8.989,104.231,8.989,104.231l9.434.309Z" transform="translate(-228.205 -156.092)" fill="#b52445"/>
        <path id="Path_50" data-name="Path 50" d="M424.763,381.588s9.2,3.328,31.939.238l-3.467,33.753-14.743,7.131s-13.653-4.327-14.221-7.131C422.542,407.021,424.763,381.588,424.763,381.588Z" transform="translate(-225.443 -157.928)" fill="#b52445"/>
      </g>
    </g>
  </g>
</svg>
